# Blender 4.2.0
# www.blender.org
mtllib Plate.mtl
o Cube
v -0.091655 0.727086 -3.362515
v -0.091655 0.272913 -3.362515
v -0.091655 0.727086 -0.637485
v -0.091655 0.272914 -0.637485
v -1.908345 0.727086 -3.362515
v -1.908345 0.272913 -3.362515
v -1.908345 0.727086 -0.637485
v -1.908345 0.272914 -0.637485
vn -0.0000 1.0000 -0.0000
vn -0.0000 -0.0000 1.0000
vn -1.0000 -0.0000 -0.0000
vn -0.0000 -1.0000 -0.0000
vn 1.0000 -0.0000 -0.0000
vn -0.0000 -0.0000 -1.0000
vt 0.826349 0.626087
vt 0.485719 0.626087
vt 0.485719 0.115145
vt 0.826349 0.115145
vt 0.826341 0.626378
vt 0.826344 0.711535
vt 0.485714 0.711546
vt 0.485711 0.626388
vt 0.400019 0.114768
vt 0.485177 0.114768
vt 0.485177 0.625712
vt 0.400019 0.625712
vt 0.055937 0.115008
vt 0.396567 0.115008
vt 0.396567 0.625951
vt 0.055937 0.625951
vt 0.912343 0.625712
vt 0.827186 0.625712
vt 0.827186 0.114768
vt 0.912343 0.114768
vt 0.826096 0.028580
vt 0.826293 0.113737
vt 0.485664 0.114524
vt 0.485468 0.029366
s 1
usemtl Main1
f 1/1/1 5/2/1 7/3/1 3/4/1
f 4/5/2 3/6/2 7/7/2 8/8/2
f 8/9/3 7/10/3 5/11/3 6/12/3
f 6/13/4 2/14/4 4/15/4 8/16/4
f 2/17/5 1/18/5 3/19/5 4/20/5
f 6/21/6 5/22/6 1/23/6 2/24/6
